PathFileType	4	(X/Y/Z)	D:\TRACE\spotREDO_2-26-24\spot_Both_Motion_3_8-v60.trc
DataRate	CameraRate	NumFrames	NumMarkers	Units	OrigDataRate	OrigDataStartFrame	OrigNumFrames
100.00	100.00	      35	9	mm	100.00	6126	      7000
Frame#	Time	front left toe			Front right toe			aft left toe			aft right toe			Arm			FL body			FR body			AL Body			AR Body			
		X1	Y1	Z1	X2	Y2	Z2	X3	Y3	Z3	X4	Y4	Z4	X5	Y5	Z5	X6	Y6	Z6	X7	Y7	Z7	X8	Y8	Z8	X9	Y9	Z9	

6126	61.250	-11.69373	38.60743	-369.87460	378.66913	42.33319	-498.67169	214.79779	60.65239	56.42632	571.43982	26.25606	65.62693	88.43440	749.12762	-733.65277	65.22944	616.41089	-481.86237	212.48077	620.86938	-533.49835	355.01709	545.43213	350.94699	495.02045	540.34052	303.41650	
6127	61.260	-12.24962	38.18770	-369.31772	378.40134	42.07030	-498.94656	207.28979	73.91695	55.66445	571.67419	26.26027	65.60568	88.30096	748.00360	-735.05573	66.55394	615.55499	-483.14368	214.06485	619.69586	-534.41522	356.84048	548.10358	350.15735	496.50137	541.92603	302.09784	
6128	61.270	-12.08365	38.15346	-369.52042	378.30014	41.64605	-499.14420	205.76161	85.33268	53.21669	571.39136	26.15770	65.39963	88.15645	747.26904	-736.29700	67.21215	614.75281	-484.16672	214.64310	619.03308	-536.03442	358.58929	549.89838	349.06403	498.12482	543.84827	301.03174	
6129	61.280	-12.02287	38.15461	-369.64368	378.23813	41.28651	-499.24423	205.39423	96.40418	52.82566	571.12750	25.91666	65.23749	87.93351	747.06036	-737.11511	68.18640	614.14545	-485.34637	215.32961	618.08191	-537.13049	359.49918	551.22253	348.07797	499.51874	544.72687	300.00000	
6130	61.290	-12.09475	38.44326	-369.85239	378.39090	41.41289	-499.17252	205.67593	103.37405	55.55632	571.09406	25.73349	65.13024	88.03753	747.55597	-737.60394	69.57446	614.01526	-486.59344	216.42194	617.75397	-538.40424	360.74081	552.17859	346.95581	500.32309	545.73297	298.93213	
6131	61.300	-12.02318	38.88268	-369.99167	378.40143	41.72109	-499.10031	207.62975	111.95796	57.74137	571.16907	25.58264	65.05878	87.82854	748.67407	-738.24133	70.50100	614.03339	-487.33051	218.35623	617.35260	-538.92426	361.65216	552.76715	346.21454	501.08466	545.99506	298.17303	
6132	61.310	-12.07799	39.08448	-370.02826	378.36258	41.86610	-499.00641	205.68607	119.05339	60.91096	571.15033	25.51306	65.02588	88.10912	749.42682	-738.47284	72.02447	613.80701	-488.59818	219.61380	617.03027	-539.90710	362.69855	553.30786	345.25674	502.52957	546.34723	297.38281	
6133	61.320	-12.03482	39.03851	-370.08313	378.39783	41.55666	-499.08469	204.44089	124.65055	62.44609	571.06580	25.38645	65.03311	87.91426	750.41248	-738.36383	73.03449	613.37665	-489.33514	220.68437	616.57263	-540.63611	363.56360	553.68933	344.57800	503.39273	546.57855	296.76666	
6134	61.330	-11.96665	38.92305	-370.14832	378.27661	41.24246	-499.12430	201.08113	128.48972	63.88549	571.14008	25.23719	65.05944	87.73816	751.05603	-738.22430	74.46125	612.90826	-490.04294	222.06444	616.01050	-541.28455	364.43713	553.96399	344.07462	504.29904	546.85114	296.09601	
6135	61.340	-11.95780	38.99144	-370.20215	378.26382	41.03283	-499.06046	198.24229	131.18169	64.76737	570.95349	25.11584	64.94926	87.58068	751.37250	-737.96716	75.76482	612.80481	-490.86850	223.63560	615.84558	-542.09656	365.49561	554.18439	343.52448	505.18893	546.83691	295.62918	
6136	61.350	-11.96904	39.25153	-370.30051	378.38217	41.08562	-498.93356	197.58594	131.55363	66.59450	571.00806	25.08504	64.97938	87.68552	752.20148	-737.47534	76.96826	612.84827	-491.18185	224.78792	615.47540	-542.19299	366.38193	554.27362	343.00934	506.23743	546.76935	295.34314	
6137	61.360	-12.02996	39.50623	-370.31876	378.23959	41.08335	-499.03555	195.95258	130.22620	69.67308	570.86969	25.01579	64.97221	87.56089	752.54333	-737.01898	78.35847	612.85303	-491.63812	225.75644	615.66968	-543.18512	367.19220	554.26721	342.82202	507.00320	546.79742	295.32489	
6138	61.370	-12.03169	39.54864	-370.30859	378.28577	40.99374	-498.96213	196.35652	128.92061	72.29161	570.97028	25.00127	65.05435	87.23318	752.63397	-736.30951	79.53516	612.69269	-491.86313	227.07455	615.62982	-543.22729	368.15054	554.18396	342.67404	507.74353	546.58813	295.13345	
6139	61.380	-11.94123	39.50817	-370.40204	378.43808	40.93962	-498.77112	195.05731	128.64836	74.91046	571.03223	24.99685	65.18037	87.26806	752.48047	-735.83429	80.97623	612.43921	-492.17520	228.13615	615.30017	-543.43597	368.95645	554.12683	342.60199	508.58649	546.61523	295.14880	
6140	61.390	-11.92470	39.58035	-370.53186	378.40689	40.87967	-498.72363	193.61157	128.71700	77.01121	570.93323	24.94388	65.21294	87.22597	752.27209	-735.43915	81.62495	612.29980	-492.13391	229.45839	615.00140	-543.13483	369.80719	554.02563	342.69333	509.85880	546.67719	295.26135	
6141	61.400	-11.96303	39.60940	-370.51953	378.41406	40.90882	-498.66217	192.04042	129.15018	79.00407	571.03534	24.93309	65.31110	87.44136	751.64764	-735.05072	82.59594	612.11298	-492.01035	230.45787	614.74609	-543.08899	370.79230	553.91406	342.77960	510.57657	546.56854	295.28632	
6142	61.410	-12.05950	39.72501	-370.38092	378.48602	41.00806	-498.57254	190.18161	129.32359	81.16795	571.11798	24.88331	65.37950	87.51047	751.33679	-734.96570	83.63102	611.94122	-491.72098	230.90486	614.94086	-543.13489	371.94836	553.85382	342.86548	511.79004	546.40491	295.45517	
6143	61.420	-12.38659	39.77697	-370.54257	378.01053	40.78518	-498.84042	188.98840	129.27310	83.20858	570.95789	24.79178	65.31442	87.79005	751.03687	-734.81097	84.21066	611.76221	-491.32230	232.01323	614.53076	-542.64459	373.18753	553.51306	343.18896	512.74481	546.13708	295.47726	
6144	61.430	-12.10774	39.68663	-370.20410	378.05380	40.76814	-498.74054	187.74696	128.19186	85.52953	571.02356	24.80157	65.37348	87.98590	750.60626	-734.42426	85.01305	611.44019	-490.96158	232.82849	614.16907	-542.23523	374.08578	553.40332	343.40701	513.94800	545.85358	295.54007	
6145	61.440	-12.06852	39.59324	-370.24506	377.78830	40.43237	-498.88611	186.58968	125.71183	87.01318	570.81854	24.69568	65.34713	88.10760	750.26056	-734.11249	85.65566	610.97321	-490.45313	233.14159	613.89459	-542.17175	375.11194	553.25751	343.85095	514.91516	545.76697	296.17673	
6146	61.450	-12.39142	39.53273	-370.56369	377.60596	40.29708	-498.93665	184.73883	119.70422	88.96143	570.91724	24.71182	65.37906	88.27964	749.83423	-733.77948	86.61079	610.58728	-489.78625	234.16133	613.48944	-541.20471	376.19016	553.01526	344.34656	515.73065	545.55273	296.54434	
6147	61.460	-12.35618	39.54237	-370.55975	377.89761	40.31425	-498.73627	183.36566	111.61861	90.72952	571.22687	24.78602	65.47014	87.95894	749.58234	-733.51257	87.36893	610.32056	-489.15192	234.94868	613.27368	-540.45483	377.17929	552.83313	344.94070	516.95203	545.18127	296.86954	
6148	61.470	-12.09084	39.54401	-370.15790	377.68073	40.21722	-498.81546	182.55759	101.87408	92.23243	571.02496	24.59456	65.37249	87.99909	749.39337	-733.27411	88.01878	610.15002	-488.21652	235.40669	613.18726	-540.05249	378.18729	552.56494	345.73883	517.92334	545.25226	297.98114	
6149	61.480	-12.09990	39.56020	-370.09833	377.73816	40.06936	-498.67435	180.89496	90.66024	93.53841	571.12891	24.68291	65.41470	87.86002	749.33746	-733.05334	88.78156	610.08612	-487.68549	236.80110	612.87286	-538.98022	379.18008	552.22144	346.52002	518.68652	544.87677	298.66000	
6150	61.490	-12.06023	39.51186	-370.18481	377.70343	39.92218	-498.61957	180.82779	79.18653	95.33274	570.99835	24.63643	65.45783	88.12742	749.36340	-732.76465	90.14698	609.74854	-486.71445	237.32167	612.82721	-538.48633	379.79236	551.99866	347.33981	519.76538	544.72125	299.61826	
6151	61.500	-12.08081	39.46037	-370.25677	377.85153	39.76712	-498.57559	180.68242	68.84074	96.59074	571.03076	24.52235	65.44555	87.75890	749.33295	-732.43616	90.96260	609.69824	-485.94998	238.41966	612.58124	-537.13574	380.60577	551.42041	348.35648	520.35974	544.23560	300.45071	
6152	61.510	-12.04914	39.40712	-370.27896	377.58093	39.77238	-498.56537	180.22615	58.20044	98.28204	570.92542	24.51110	65.51952	87.50650	749.29553	-732.07654	91.69581	609.50342	-484.86685	238.94537	612.82672	-536.31049	381.33752	550.90967	349.37839	520.96924	543.97778	301.70767	
6153	61.520	-12.14680	39.48732	-370.23914	377.86060	39.67038	-498.56693	179.88042	48.26096	99.17421	571.20844	24.59008	65.69056	87.46901	749.35217	-731.89136	92.75864	609.58197	-483.73212	240.22743	612.42957	-535.04156	382.06903	550.63544	350.37775	521.97003	543.59546	302.75687	
6154	61.530	-12.17292	39.53178	-370.19986	377.86606	39.55714	-498.47119	179.12570	38.41542	99.72108	571.27283	24.67387	65.88434	87.24741	749.41980	-731.71741	93.65370	609.36847	-482.64917	241.04402	612.52759	-533.78625	382.96286	550.31030	351.76157	522.72864	543.51563	303.97012	
6155	61.540	-12.41551	39.56230	-370.11246	377.63980	39.37922	-498.57510	178.18365	28.73302	100.34889	571.22736	24.52896	65.93330	87.44505	749.40216	-731.58691	94.34316	609.24402	-481.30737	241.70018	612.67474	-532.82611	383.84766	550.01617	352.93091	523.36786	543.27100	305.21545	
6156	61.550	-11.88314	38.97078	-369.95914	377.77209	39.25113	-498.40659	177.87015	18.74251	100.50481	571.29364	24.45813	66.08531	87.36937	749.35156	-731.46771	95.08442	609.03204	-479.78751	242.29277	612.56921	-531.29803	384.48041	549.77356	354.33514	524.39545	542.98706	306.71509	
6157	61.560	-11.77457	38.75843	-369.92947	377.72708	39.13006	-498.40298	176.46606	17.48316	98.33167	571.24628	24.51763	66.09381	87.46941	749.24567	-731.41962	96.36277	608.55237	-478.24103	243.36633	612.29419	-529.86487	385.50449	549.79633	356.02792	525.33936	543.12146	308.32828	
6158	61.570	-11.41078	39.19343	-369.51999	377.69742	38.51147	-498.12527	176.31473	17.34055	101.01257	570.93610	24.48355	66.11593	87.52513	749.14532	-731.42474	96.96188	608.13879	-476.55844	243.74239	611.39545	-528.35358	386.94473	551.43634	357.46292	526.86316	544.02368	309.48230	
6159	61.580	-11.66229	39.55544	-369.34991	377.70157	38.42343	-498.11487	176.98119	18.10832	100.46423	571.01343	24.43914	66.16569	87.62172	748.99341	-731.34265	97.77926	607.94550	-475.01944	244.72768	611.00769	-526.51801	387.95242	552.44958	359.00674	527.74188	545.25964	311.05740	
6160	61.590	-11.70446	39.83022	-369.25269	377.74655	38.51553	-498.03284	177.52129	18.59169	100.72355	571.46906	24.48167	66.33776	87.56010	748.73621	-731.33600	98.40130	607.98004	-473.76779	245.45036	611.51776	-525.49188	388.74939	552.83978	360.28940	528.18591	545.78064	312.55112	
